<svg width="4" height="4" viewBox="0 0 4 4" fill="none" xmlns="http://www.w3.org/2000/svg">
<path d="M3.41176 0.77926H2.99106C2.97008 0.566748 2.85657 0.368725 2.67303 0.224407C2.48949 0.0800892 2.24929 0 2 0C1.75071 0 1.51051 0.0800892 1.32697 0.224407C1.14343 0.368725 1.02992 0.566748 1.00894 0.77926H0.588235C0.432226 0.77926 0.282606 0.83228 0.17229 0.926656C0.0619746 1.02103 0 1.14903 0 1.2825L0 3.49676C0 3.63023 0.0619746 3.75823 0.17229 3.8526C0.282606 3.94698 0.432226 4 0.588235 4H3.41176C3.56777 4 3.71739 3.94698 3.82771 3.8526C3.93803 3.75823 4 3.63023 4 3.49676V1.2825C4 1.14903 3.93803 1.02103 3.82771 0.926656C3.71739 0.83228 3.56777 0.77926 3.41176 0.77926V0.77926ZM2 0.200534C2.18697 0.20103 2.36723 0.260238 2.50655 0.366921C2.64586 0.473604 2.73455 0.620334 2.75576 0.77926H1.24424C1.26545 0.620334 1.35414 0.473604 1.49345 0.366921C1.63277 0.260238 1.81303 0.20103 2 0.200534ZM3.76471 3.49676C3.76471 3.57684 3.72752 3.65364 3.66133 3.71027C3.59514 3.76689 3.50537 3.7987 3.41176 3.7987H0.588235C0.494629 3.7987 0.404858 3.76689 0.338668 3.71027C0.272479 3.65364 0.235294 3.57684 0.235294 3.49676V1.2825C0.235294 1.20242 0.272479 1.12562 0.338668 1.06899C0.404858 1.01237 0.494629 0.980557 0.588235 0.980557H3.41176C3.50537 0.980557 3.59514 1.01237 3.66133 1.06899C3.72752 1.12562 3.76471 1.20242 3.76471 1.2825V3.49676Z" fill="white"/>
</svg>
